<svg width="24" height="24" viewBox="0 0 24 24" fill="none" xmlns="http://www.w3.org/2000/svg">
<path d="M5.25 6.75032H8.98125C9.25406 6.73439 14.0081 6.3997 18.5353 2.60282C18.7539 2.41922 19.0204 2.30181 19.3034 2.2644C19.5865 2.22699 19.8743 2.27112 20.1331 2.39162C20.3919 2.51212 20.611 2.70398 20.7645 2.94466C20.9181 3.18533 20.9998 3.46483 21 3.75032V18.7503C21 19.0359 20.9184 19.3155 20.7649 19.5563C20.6114 19.7972 20.3924 19.9892 20.1335 20.1098C19.8747 20.2304 19.5868 20.2746 19.3037 20.2372C19.0206 20.1998 18.754 20.0824 18.5353 19.8988C14.9944 16.9288 11.3166 16.0775 9.75 15.8394V18.8131C9.75031 19.0603 9.68954 19.3037 9.57309 19.5218C9.45664 19.7398 9.28811 19.9256 9.0825 20.0628L8.05125 20.75C7.85192 20.8831 7.62362 20.9664 7.38546 20.9931C7.1473 21.0197 6.90622 20.989 6.68241 20.9033C6.45859 20.8177 6.25855 20.6796 6.09904 20.5008C5.93954 20.3219 5.82521 20.1074 5.76562 19.8753L4.66219 15.7166C3.5215 15.5764 2.47765 15.0052 1.74473 14.1199C1.01181 13.2347 0.645365 12.1026 0.720547 10.9558C0.795731 9.80897 1.30684 8.73439 2.14906 7.95241C2.99128 7.17044 4.10077 6.74034 5.25 6.75032ZM7.21875 19.49V19.5003L8.25 18.8131V15.7503H6.225L7.21875 19.49ZM5.25 14.2503H8.25V8.25032H5.25C4.45435 8.25032 3.69129 8.56639 3.12868 9.129C2.56607 9.69161 2.25 10.4547 2.25 11.2503C2.25 12.046 2.56607 12.809 3.12868 13.3716C3.69129 13.9343 4.45435 14.2503 5.25 14.2503Z" fill="#EA3A50"/>
</svg>
