<svg width="43" height="43" viewBox="0 0 43 43" fill="none" xmlns="http://www.w3.org/2000/svg">
<g clip-path="url(#clip0_134_23999)">
<g filter="url(#filter0_i_134_23999)">
<path fill-rule="evenodd" clip-rule="evenodd" d="M14.6445 12.6663C13.7363 12.8229 12.9163 13.4576 12.5143 14.3152L12.2918 14.7899L12.2697 28.4825L12.2477 42.1753L12.4925 42.42L12.7373 42.6649H14.7815C16.9496 42.6649 17.1622 42.6325 17.3243 42.2768C17.3881 42.1366 17.4168 40.7828 17.4168 37.9055V33.7373L17.5137 33.5552C17.567 33.4551 17.6702 33.3275 17.7429 33.2717L17.8751 33.1702H21.3335H24.7918L24.924 33.2717C24.9967 33.3275 25.0999 33.4551 25.1532 33.5552L25.2501 33.7373V37.9055C25.2501 40.7828 25.2788 42.1366 25.3426 42.2768C25.5047 42.6325 25.7173 42.6649 27.8855 42.6649H29.9296L30.1745 42.42L30.4192 42.1753L30.3972 28.4825L30.3751 14.7899L30.1498 14.309C29.8542 13.6783 29.2193 13.065 28.6053 12.817L28.1251 12.6232L21.5835 12.6105C17.9855 12.6035 14.863 12.6286 14.6445 12.6663ZM16.7796 20.0292L16.5498 20.2269L16.5589 20.5477L16.568 20.8685L16.7887 21.0584L17.0095 21.2482H21.302C24.2174 21.2482 25.6484 21.2193 25.7626 21.1582C25.8552 21.1086 25.9837 20.9417 26.0483 20.7871C26.1873 20.4545 26.1072 20.166 25.8202 19.965L25.6297 19.8315H21.3195H17.0095L16.7796 20.0292ZM5.72796 22.8389C4.94929 23.0224 4.20037 23.6282 3.83146 24.3732L3.62512 24.7899V32.7066V40.6232L3.81737 41.0095C4.12787 41.6337 4.54187 42.0506 5.14737 42.3489L5.70429 42.6232L8.05954 42.6488L10.4149 42.6744L10.6241 42.465L10.8335 42.2558L10.8308 32.7311L10.8281 23.2065L10.7266 23.0743C10.4949 22.7725 10.2973 22.748 8.15146 22.7565C6.99112 22.7612 5.90062 22.7982 5.72796 22.8389ZM32.2085 22.8456C32.1168 22.9 31.9961 23.0034 31.9403 23.0755L31.8388 23.2065L31.8361 32.7311L31.8335 42.2558L32.0428 42.465L32.252 42.6744L34.6074 42.6488L36.9626 42.6232L37.5195 42.3489C38.125 42.0506 38.539 41.6337 38.8495 41.0095L39.0418 40.6232V32.7066V24.7899L38.7556 24.262C38.4401 23.6802 37.9939 23.2674 37.3685 22.979L36.9585 22.7899L34.6668 22.7683L32.3751 22.7468L32.2085 22.8456ZM18.0298 26.8624L17.8001 27.06V27.3732V27.6865L18.0298 27.884L18.2595 28.0815H21.3335H24.4075L24.6371 27.884L24.8668 27.6865V27.3732V27.06L24.6371 26.8624L24.4075 26.6649H21.3335H18.2595L18.0298 26.8624ZM7.27562 29.3659L7.04179 29.5668L7.01637 31.3124L6.99096 33.0579L7.21129 33.3197L7.43162 33.5816H7.71962C7.91437 33.5816 8.07396 33.5153 8.21221 33.377L8.41679 33.1725V31.3732V29.574L8.21221 29.3695C7.94746 29.1046 7.58121 29.1032 7.27562 29.3659ZM34.4547 29.3695L34.2501 29.574V31.3732V33.1725L34.4547 33.377C34.7195 33.6419 35.0858 33.6432 35.3913 33.3805L35.6251 33.1793V31.3732V29.5671L35.3913 29.366C35.0858 29.1032 34.7195 29.1045 34.4547 29.3695ZM19.077 34.8251L18.8335 35.0687V38.6232V42.1777L19.077 42.4213L19.3206 42.6649H21.3335H23.3463L23.5899 42.4213L23.8335 42.1777V38.6232V35.0687L23.5899 34.8251L23.3463 34.5816H21.3335H19.3206L19.077 34.8251Z" fill="#FFD6D6"/>
</g>
<g filter="url(#filter1_i_134_23999)">
<path d="M20.7086 2.29763C20.9436 1.57443 21.9668 1.57443 22.2017 2.29763L22.7828 4.08605C22.8879 4.40948 23.1893 4.62845 23.5294 4.62845H25.4098C26.1703 4.62845 26.4864 5.60151 25.8712 6.04846L24.3499 7.15377C24.0748 7.35366 23.9597 7.70797 24.0648 8.03139L24.6458 9.81981C24.8808 10.543 24.0531 11.1444 23.4379 10.6974L21.9166 9.59212C21.6415 9.39224 21.2689 9.39224 20.9938 9.59212L19.4725 10.6974C18.8573 11.1444 18.0296 10.543 18.2645 9.81981L18.8456 8.03139C18.9507 7.70797 18.8356 7.35366 18.5605 7.15377L17.0392 6.04846C16.424 5.60151 16.7401 4.62845 17.5005 4.62845H19.381C19.7211 4.62845 20.0225 4.40948 20.1276 4.08606L20.7086 2.29763Z" fill="#EA3A50"/>
</g>
<g filter="url(#filter2_i_134_23999)">
<path d="M13.4717 6.40201C13.6127 5.9681 14.2266 5.9681 14.3675 6.40201L14.5658 7.01223C14.6289 7.20628 14.8097 7.33766 15.0137 7.33766H15.6553C16.1116 7.33766 16.3013 7.9215 15.9322 8.18967L15.4131 8.5668C15.248 8.68673 15.179 8.89932 15.242 9.09337L15.4403 9.70358C15.5813 10.1375 15.0846 10.4983 14.7155 10.2302L14.1964 9.85302C14.0314 9.73309 13.8079 9.73309 13.6428 9.85302L13.1237 10.2302C12.7546 10.4983 12.258 10.1375 12.3989 9.70358L12.5972 9.09337C12.6603 8.89932 12.5912 8.68673 12.4261 8.5668L11.907 8.18967C11.5379 7.9215 11.7276 7.33766 12.1839 7.33766H12.8255C13.0295 7.33766 13.2104 7.20628 13.2734 7.01223L13.4717 6.40201Z" fill="#EA3A50"/>
</g>
<g filter="url(#filter3_i_134_23999)">
<path d="M29.4388 6.40201C29.2978 5.9681 28.684 5.9681 28.543 6.40201L28.3447 7.01223C28.2817 7.20628 28.1008 7.33766 27.8968 7.33766H27.2552C26.7989 7.33766 26.6092 7.9215 26.9783 8.18967L27.4974 8.5668C27.6625 8.68673 27.7316 8.89932 27.6685 9.09337L27.4702 9.70358C27.3292 10.1375 27.8259 10.4983 28.195 10.2302L28.7141 9.85302C28.8791 9.73309 29.1027 9.73309 29.2677 9.85302L29.7868 10.2302C30.1559 10.4983 30.6526 10.1375 30.5116 9.70358L30.3133 9.09337C30.2503 8.89932 30.3193 8.68673 30.4844 8.5668L31.0035 8.18967C31.3726 7.9215 31.1829 7.33766 30.7266 7.33766H30.085C29.881 7.33766 29.7002 7.20628 29.6371 7.01223L29.4388 6.40201Z" fill="#EA3A50"/>
</g>
<g filter="url(#filter4_i_134_23999)">
<path d="M8.44788 9.75358C8.58887 9.31966 9.20275 9.31966 9.34374 9.75358L9.54201 10.3638C9.60506 10.5578 9.78589 10.6892 9.98993 10.6892H10.6315C11.0878 10.6892 11.2775 11.2731 10.9084 11.5412L10.3893 11.9184C10.2242 12.0383 10.1552 12.2509 10.2182 12.4449L10.4165 13.0551C10.5575 13.4891 10.0608 13.8499 9.69172 13.5817L9.17264 13.2046C9.00757 13.0847 8.78405 13.0847 8.61898 13.2046L8.0999 13.5817C7.73079 13.8499 7.23415 13.4891 7.37514 13.0551L7.57341 12.4449C7.63646 12.2509 7.56739 12.0383 7.40232 11.9184L6.88324 11.5412C6.51413 11.2731 6.70383 10.6892 7.16007 10.6892H7.80169C8.00573 10.6892 8.18656 10.5578 8.24961 10.3638L8.44788 9.75358Z" fill="#EA3A50"/>
</g>
<g filter="url(#filter5_i_134_23999)">
<path d="M34.4626 9.75358C34.3217 9.31966 33.7078 9.31966 33.5668 9.75358L33.3685 10.3638C33.3055 10.5578 33.1246 10.6892 32.9206 10.6892H32.279C31.8227 10.6892 31.633 11.2731 32.0021 11.5412L32.5212 11.9184C32.6863 12.0383 32.7554 12.2509 32.6923 12.4449L32.494 13.0551C32.3531 13.4891 32.8497 13.8499 33.2188 13.5817L33.7379 13.2046C33.9029 13.0847 34.1265 13.0847 34.2915 13.2046L34.8106 13.5817C35.1797 13.8499 35.6764 13.4891 35.5354 13.0551L35.3371 12.4449C35.2741 12.2509 35.3431 12.0383 35.5082 11.9184L36.0273 11.5412C36.3964 11.2731 36.2067 10.6892 35.7504 10.6892H35.1088C34.9048 10.6892 34.724 10.5578 34.6609 10.3638L34.4626 9.75358Z" fill="#EA3A50"/>
</g>
</g>
<defs>
<filter id="filter0_i_134_23999" x="3.62512" y="11.6094" width="35.4166" height="31.0625" filterUnits="userSpaceOnUse" color-interpolation-filters="sRGB">
<feFlood flood-opacity="0" result="BackgroundImageFix"/>
<feBlend mode="normal" in="SourceGraphic" in2="BackgroundImageFix" result="shape"/>
<feColorMatrix in="SourceAlpha" type="matrix" values="0 0 0 0 0 0 0 0 0 0 0 0 0 0 0 0 0 0 127 0" result="hardAlpha"/>
<feOffset dy="-1"/>
<feGaussianBlur stdDeviation="1"/>
<feComposite in2="hardAlpha" operator="arithmetic" k2="-1" k3="1"/>
<feColorMatrix type="matrix" values="0 0 0 0 0.784314 0 0 0 0 0 0 0 0 0 0 0 0 0 0.7 0"/>
<feBlend mode="normal" in2="shape" result="effect1_innerShadow_134_23999"/>
</filter>
<filter id="filter1_i_134_23999" x="16.7141" y="0.757812" width="9.48218" height="10.0938" filterUnits="userSpaceOnUse" color-interpolation-filters="sRGB">
<feFlood flood-opacity="0" result="BackgroundImageFix"/>
<feBlend mode="normal" in="SourceGraphic" in2="BackgroundImageFix" result="shape"/>
<feColorMatrix in="SourceAlpha" type="matrix" values="0 0 0 0 0 0 0 0 0 0 0 0 0 0 0 0 0 0 127 0" result="hardAlpha"/>
<feOffset dy="-1"/>
<feGaussianBlur stdDeviation="1"/>
<feComposite in2="hardAlpha" operator="arithmetic" k2="-1" k3="1"/>
<feColorMatrix type="matrix" values="0 0 0 0 0.457219 0 0 0 0 0 0 0 0 0 0 0 0 0 0.7 0"/>
<feBlend mode="normal" in2="shape" result="effect1_innerShadow_134_23999"/>
</filter>
<filter id="filter2_i_134_23999" x="11.712" y="5.07812" width="4.41516" height="5.24219" filterUnits="userSpaceOnUse" color-interpolation-filters="sRGB">
<feFlood flood-opacity="0" result="BackgroundImageFix"/>
<feBlend mode="normal" in="SourceGraphic" in2="BackgroundImageFix" result="shape"/>
<feColorMatrix in="SourceAlpha" type="matrix" values="0 0 0 0 0 0 0 0 0 0 0 0 0 0 0 0 0 0 127 0" result="hardAlpha"/>
<feOffset dy="-1"/>
<feGaussianBlur stdDeviation="1"/>
<feComposite in2="hardAlpha" operator="arithmetic" k2="-1" k3="1"/>
<feColorMatrix type="matrix" values="0 0 0 0 0.457219 0 0 0 0 0 0 0 0 0 0 0 0 0 0.7 0"/>
<feBlend mode="normal" in2="shape" result="effect1_innerShadow_134_23999"/>
</filter>
<filter id="filter3_i_134_23999" x="26.7833" y="5.07812" width="4.41516" height="5.24219" filterUnits="userSpaceOnUse" color-interpolation-filters="sRGB">
<feFlood flood-opacity="0" result="BackgroundImageFix"/>
<feBlend mode="normal" in="SourceGraphic" in2="BackgroundImageFix" result="shape"/>
<feColorMatrix in="SourceAlpha" type="matrix" values="0 0 0 0 0 0 0 0 0 0 0 0 0 0 0 0 0 0 127 0" result="hardAlpha"/>
<feOffset dy="-1"/>
<feGaussianBlur stdDeviation="1"/>
<feComposite in2="hardAlpha" operator="arithmetic" k2="-1" k3="1"/>
<feColorMatrix type="matrix" values="0 0 0 0 0.457219 0 0 0 0 0 0 0 0 0 0 0 0 0 0.7 0"/>
<feBlend mode="normal" in2="shape" result="effect1_innerShadow_134_23999"/>
</filter>
<filter id="filter4_i_134_23999" x="6.68823" y="8.42969" width="4.41516" height="5.24219" filterUnits="userSpaceOnUse" color-interpolation-filters="sRGB">
<feFlood flood-opacity="0" result="BackgroundImageFix"/>
<feBlend mode="normal" in="SourceGraphic" in2="BackgroundImageFix" result="shape"/>
<feColorMatrix in="SourceAlpha" type="matrix" values="0 0 0 0 0 0 0 0 0 0 0 0 0 0 0 0 0 0 127 0" result="hardAlpha"/>
<feOffset dy="-1"/>
<feGaussianBlur stdDeviation="1"/>
<feComposite in2="hardAlpha" operator="arithmetic" k2="-1" k3="1"/>
<feColorMatrix type="matrix" values="0 0 0 0 0.457219 0 0 0 0 0 0 0 0 0 0 0 0 0 0.7 0"/>
<feBlend mode="normal" in2="shape" result="effect1_innerShadow_134_23999"/>
</filter>
<filter id="filter5_i_134_23999" x="31.8071" y="8.42969" width="4.41516" height="5.24219" filterUnits="userSpaceOnUse" color-interpolation-filters="sRGB">
<feFlood flood-opacity="0" result="BackgroundImageFix"/>
<feBlend mode="normal" in="SourceGraphic" in2="BackgroundImageFix" result="shape"/>
<feColorMatrix in="SourceAlpha" type="matrix" values="0 0 0 0 0 0 0 0 0 0 0 0 0 0 0 0 0 0 127 0" result="hardAlpha"/>
<feOffset dy="-1"/>
<feGaussianBlur stdDeviation="1"/>
<feComposite in2="hardAlpha" operator="arithmetic" k2="-1" k3="1"/>
<feColorMatrix type="matrix" values="0 0 0 0 0.457219 0 0 0 0 0 0 0 0 0 0 0 0 0 0.7 0"/>
<feBlend mode="normal" in2="shape" result="effect1_innerShadow_134_23999"/>
</filter>
<clipPath id="clip0_134_23999">
<rect width="42.6667" height="42.6667" fill="white"/>
</clipPath>
</defs>
</svg>
